<svg width="20" height="19" viewBox="0 0 20 19" fill="none" xmlns="http://www.w3.org/2000/svg">
<path d="M7.82369 17.5601V13.1254C7.82369 12.5731 8.27141 12.1254 8.82369 12.1254H11.1715C11.7238 12.1254 12.1715 12.5731 12.1715 13.1254V17.5601C12.1715 18.1579 12.6606 18.6471 13.2584 18.6471H16.5193C17.1171 18.6471 17.6062 18.1579 17.6062 17.5601V10.9515C17.6062 10.3992 18.0539 9.95148 18.6062 9.95148H19.454C19.954 9.95148 20.1932 9.33192 19.8127 9.00583L10.7258 0.821117C10.3128 0.451555 9.68237 0.451555 9.26933 0.821117L0.182446 9.00583C-0.187116 9.33192 0.0411431 9.95148 0.541139 9.95148H1.38895C1.94124 9.95148 2.38895 10.3992 2.38895 10.9515V17.5601C2.38895 18.1579 2.87808 18.6471 3.4759 18.6471H6.73674C7.33456 18.6471 7.82369 18.1579 7.82369 17.5601Z" fill="#74A2B2"/>
</svg>
